<svg xmlns="http://www.w3.org/2000/svg" viewBox="0 0 128 128" role="img" aria-label="Vocab Leitner Assistant logo">
  <defs>
    <linearGradient id="b" x1="14" y1="12" x2="98" y2="112" gradientUnits="userSpaceOnUse">
      <stop stop-color="#075BFF"/><stop offset="1" stop-color="#15B8A6"/>
    </linearGradient>
    <linearGradient id="s" x1="0" y1="0" x2="1" y2="1"><stop stop-color="#7C3AED"/><stop offset="1" stop-color="#06B6D4"/></linearGradient>
  </defs>
  <rect width="128" height="128" rx="30" fill="#F8FBFF"/>
  <path d="M20 31c14-8 27-5 42 4v59c-14-10-28-12-42-4V31Z" fill="#0B63F6"/>
  <path d="M66 35c14-9 28-12 42-4v59c-14-8-28-6-42 4V35Z" fill="url(#b)"/>
  <path d="M63 35v62" stroke="#EAF3FF" stroke-width="5" stroke-linecap="round"/>
  <path d="M26 42c9-4 19-3 29 2M74 44c9-5 18-6 27-3M26 57c9-4 19-3 29 2M74 59c9-5 18-6 27-3" stroke="#DCEBFF" stroke-width="3" stroke-linecap="round" opacity=".9"/>
  <path d="M96 22l7 8 16-19" fill="none" stroke="#14B8A6" stroke-width="8" stroke-linecap="round" stroke-linejoin="round"/>
  <path d="M18 19h8M22 15v8M105 98h7m-3.5-3.5v7" stroke="#2563EB" stroke-width="4" stroke-linecap="round"/>
  <g transform="translate(79 76)">
    <rect x="0" y="0" width="42" height="32" rx="16" fill="#12B8A6"/>
    <circle cx="14" cy="16" r="3.5" fill="#fff"/><circle cx="23" cy="16" r="3.5" fill="#fff"/><circle cx="32" cy="16" r="3.5" fill="#fff"/>
  </g>
</svg>
