<svg xmlns="http://www.w3.org/2000/svg" viewBox="0 0 220 220" role="img" aria-label="Blinking study owl mascot">
  <defs><linearGradient id="g" x1="25" y1="35" x2="190" y2="190" gradientUnits="userSpaceOnUse"><stop stop-color="#0B63F6"/><stop offset="1" stop-color="#14B8A6"/></linearGradient></defs>
  <ellipse cx="110" cy="120" rx="70" ry="74" fill="url(#g)"/>
  <ellipse cx="110" cy="132" rx="44" ry="48" fill="#F8FBFF"/>
  <path d="M48 80c14-28 31-43 53-40l-18 35c-11 3-21 6-35 5Zm124 0c-14-28-31-43-53-40l18 35c11 3 21 6 35 5Z" fill="#0A3A88"/>
  <circle cx="84" cy="102" r="26" fill="#fff"/><circle cx="136" cy="102" r="26" fill="#fff"/>
  <path d="M70 104c10 8 19 8 28 0M122 104c10 8 19 8 28 0" fill="none" stroke="#0B1B3A" stroke-width="6" stroke-linecap="round"/>
  <path d="M71 90c12-9 24-9 34 0M111 90c12-9 24-9 34 0" fill="none" stroke="#0B1B3A" stroke-width="6" stroke-linecap="round"/>
  <path d="M110 116l13 9-13 12-13-12 13-9Z" fill="#F97316"/>
  <path d="M85 146c17 11 33 11 50 0" fill="none" stroke="#0B1B3A" stroke-width="6" stroke-linecap="round"/>
  <path d="M77 49h66" stroke="#0B1B3A" stroke-width="8" stroke-linecap="round"/>
  <path d="M73 149l5 42M147 149l-5 42" stroke="#0B63F6" stroke-width="10" stroke-linecap="round"/>
  <path d="M62 141c-16 7-24 18-20 29 11-4 20-11 27-22M158 141c16 7 24 18 20 29-11-4-20-11-27-22" fill="#075BFF"/>
  <rect x="66" y="149" width="88" height="34" rx="5" fill="#0B63F6"/><path d="M110 149v34" stroke="#EAF3FF" stroke-width="3"/><path d="M72 159c10-4 22-4 32 0M116 159c10-4 22-4 32 0" stroke="#DCEBFF" stroke-width="3" stroke-linecap="round"/>
  <ellipse cx="90" cy="194" rx="13" ry="6" fill="#F97316"/><ellipse cx="130" cy="194" rx="13" ry="6" fill="#F97316"/>
  <path d="M182 25h7m-3.5-3.5v7M36 31h6m-3-3v6" stroke="#7C3AED" stroke-width="4" stroke-linecap="round"/>
</svg>