<svg xmlns="http://www.w3.org/2000/svg" viewBox="0 0 220 220" role="img" aria-label="Blinking sad owl mascot">
  <defs><linearGradient id="g" x1="25" y1="35" x2="190" y2="190" gradientUnits="userSpaceOnUse"><stop stop-color="#2563EB"/><stop offset="1" stop-color="#64748B"/></linearGradient></defs>
  <ellipse cx="110" cy="126" rx="72" ry="76" fill="url(#g)"/>
  <ellipse cx="110" cy="139" rx="45" ry="50" fill="#F8FBFF"/>
  <path d="M48 83c14-28 31-43 53-40l-18 35c-11 3-21 6-35 5Zm124 0c-14-28-31-43-53-40l18 35c11 3 21 6 35 5Z" fill="#0A3A88"/>
  <circle cx="83" cy="107" r="28" fill="#fff"/><circle cx="137" cy="107" r="28" fill="#fff"/>
  <path d="M69 111c10-8 20-8 28 0M123 111c10-8 20-8 28 0" fill="none" stroke="#0B1B3A" stroke-width="7" stroke-linecap="round"/>
  <path d="M73 96c11-7 22-4 31 5M116 101c9-9 20-12 31-5" fill="none" stroke="#0B1B3A" stroke-width="7" stroke-linecap="round"/>
  <path d="M110 125l13 9-13 11-13-11 13-9Z" fill="#F97316"/>
  <path d="M92 158c12-10 25-10 37 0" fill="none" stroke="#0B1B3A" stroke-width="6" stroke-linecap="round"/>
  <path d="M62 140c-18 7-23 18-18 29 12-3 22-10 29-22M158 140c18 7 23 18 18 29-12-3-22-10-29-22" fill="#2563EB"/>
  <path d="M72 63l-18-20M148 63l18-20" stroke="#94A3B8" stroke-width="6" stroke-linecap="round"/>
  <path d="M154 40c6-13 26-12 29 4 4 22-32 22-29-4Z" fill="#E0F2FE"/><path d="M171 59c4 8 3 16-5 22" stroke="#60A5FA" stroke-width="4" stroke-linecap="round"/>
  <ellipse cx="87" cy="198" rx="14" ry="7" fill="#F97316"/><ellipse cx="133" cy="198" rx="14" ry="7" fill="#F97316"/>
</svg>